<svg xmlns="http://www.w3.org/2000/svg" viewBox="0 0 100 100" width="100" height="100">
  <defs>
    <linearGradient id="phantomGradient" x1="0%" y1="0%" x2="100%" y2="100%">
      <stop offset="0%" style="stop-color:#8b5cf6;stop-opacity:1" />
      <stop offset="100%" style="stop-color:#06b6d4;stop-opacity:1" />
    </linearGradient>
    <filter id="glow">
      <feGaussianBlur stdDeviation="3" result="coloredBlur"/>
      <feMerge> 
        <feMergeNode in="coloredBlur"/>
        <feMergeNode in="SourceGraphic"/>
      </feMerge>
    </filter>
  </defs>
  
  <!-- Ghost body -->
  <path d="M50 15 C35 15 25 25 25 40 L25 70 C25 75 30 80 35 80 L40 80 C42 78 45 78 47 80 L53 80 C55 78 58 78 60 80 L65 80 C70 80 75 75 75 70 L75 40 C75 25 65 15 50 15 Z" 
        fill="url(#phantomGradient)" 
        filter="url(#glow)"/>
  
  <!-- Eyes -->
  <circle cx="40" cy="35" r="4" fill="#ffffff"/>
  <circle cx="60" cy="35" r="4" fill="#ffffff"/>
  
  <!-- Pupils -->
  <circle cx="41" cy="36" r="2" fill="#1e1b4b"/>
  <circle cx="59" cy="36" r="2" fill="#1e1b4b"/>
  
  <!-- Mouth -->
  <ellipse cx="50" cy="50" rx="8" ry="6" fill="#ffffff"/>
  
  <!-- Sparkles -->
  <g opacity="0.8">
    <path d="M20 25 L22 30 L27 28 L22 33 L20 38 L18 33 L13 28 L18 30 Z" fill="#f59e0b">
      <animateTransform attributeName="transform" type="rotate" values="0 20 30;360 20 30" dur="4s" repeatCount="indefinite"/>
    </path>
    <path d="M80 20 L81 23 L84 22 L81 25 L80 28 L79 25 L76 22 L79 23 Z" fill="#06b6d4">
      <animateTransform attributeName="transform" type="rotate" values="0 80 25;-360 80 25" dur="3s" repeatCount="indefinite"/>
    </path>
    <path d="M85 65 L86 67 L88 66 L86 68 L85 70 L84 68 L82 66 L84 67 Z" fill="#8b5cf6">
      <animateTransform attributeName="transform" type="rotate" values="0 85 67;360 85 67" dur="5s" repeatCount="indefinite"/>
    </path>
  </g>
</svg>